<?xml version="1.0" encoding="UTF-8" standalone="no"?>
<svg
   width="173"
   height="37"
   viewBox="0 0 173 37"
   fill="none"
   version="1.1"
   id="svg175"
   xml:space="preserve"
   sodipodi:docname="logo4.svg"
   inkscape:version="1.2.2 (b0a8486, 2022-12-01)"
   xmlns:inkscape="http://www.inkscape.org/namespaces/inkscape"
   xmlns:sodipodi="http://sodipodi.sourceforge.net/DTD/sodipodi-0.dtd"
   xmlns="http://www.w3.org/2000/svg"
   xmlns:svg="http://www.w3.org/2000/svg"><sodipodi:namedview
     id="namedview131"
     pagecolor="#ffffff"
     bordercolor="#000000"
     borderopacity="0.25"
     inkscape:showpageshadow="2"
     inkscape:pageopacity="0.0"
     inkscape:pagecheckerboard="0"
     inkscape:deskcolor="#d1d1d1"
     showgrid="false"
     inkscape:zoom="6.2769231"
     inkscape:cx="85.232843"
     inkscape:cy="18.480392"
     inkscape:window-width="1356"
     inkscape:window-height="697"
     inkscape:window-x="0"
     inkscape:window-y="35"
     inkscape:window-maximized="1"
     inkscape:current-layer="text492" /><defs
     id="defs173" /><path
     d="m 37.822304,29.826936 -1.48954,2.560228 c -0.785346,1.374356 -1.599489,2.746094 -2.379599,4.130922 a 0.82199571,0.82199571 0 0 1 -0.81676,0.479061 q -10.657149,-0.02094 -21.309062,0 c -0.628277,0 -0.685869,-0.109949 -0.366495,-0.670162 0.680634,-1.188491 1.363885,-2.374364 2.128288,-3.706835 H 6.9294 c 0.460737,-0.81676 0.832467,-1.484304 1.214669,-2.143995 q 4.683282,-8.099537 9.363945,-16.183367 a 0.78534622,0.78534622 0 0 0 0,-0.934562 C 16.84047,12.256123 16.199104,11.13046 15.565591,10.015268 15.471351,9.8555811 15.356165,9.7063661 15.180771,9.4472011 L 3.95032,28.874049 C 3.78278,28.612267 3.672831,28.468287 3.57859,28.3086 2.439838,26.337381 1.308939,24.350455 0.15447995,22.39756 a 0.86126302,0.86126302 0 0 1 0.01309,-1.002625 Q 5.521013,12.172353 10.853514,2.9340631 c 0.08377,-0.14398 0.180629,-0.280107 0.345552,-0.523564 l 2.439809,4.188513 c 1.130899,-1.942423 2.196352,-3.777515 3.324632,-5.71993803 0.222515,0.35078803 0.38482,0.59162703 0.523565,0.84032003 q 5.002656,8.6388089 9.99484,17.2985599 c 0.238222,0.418851 0.489532,0.623041 1.000007,0.607334 1.248701,-0.03927 2.497401,0 3.746102,0 0.185865,0 0.37173,-0.02356 0.688487,-0.04712 L 21.678203,0.07540307 c 0.311521,-0.0288 0.463355,-0.07068 0.625659,-0.07068 h 6.842984 a 0.88220559,0.88220559 0 0 1 0.882205,0.486915 Q 35.453176,9.9000851 40.893007,19.298062 c 0.0288,0.05236 0.04189,0.115184 0.09948,0.261782 h -4.848204 l 3.316779,5.774912 c -0.353406,0.02094 -0.623042,0.05236 -0.890059,0.05236 H 18.61797 a 1.1963441,1.1963441 0 0 0 -1.217287,0.706811 c -0.649219,1.206816 -1.361266,2.379599 -2.146613,3.735631 z"
     fill="#000000"
     id="path429"
     style="stroke-width:0.261782" /><g
     aria-label="mbumwa"
     id="text492"
     style="font-size:26.6667px;font-family:Akashi;-inkscape-font-specification:Akashi;fill:#000000"><path
       d="m 55.897421,13.140186 h -5.221354 v 10.416666 h -3.90625 V 11.838103 q 0,-2.604167 2.604167,-2.604167 h 16.927083 q 2.604166,0 2.604166,2.604167 v 11.718749 h -3.906249 l -0.01302,-10.416666 h -5.182292 v 10.416666 h -3.90625 z"
       id="path937" /><path
       d="m 74.113566,23.556852 q -2.604167,0 -2.604167,-2.604166 V 4.0256028 h 3.90625 V 19.650602 h 7.8125 v -6.510416 h -6.510416 l 1.302083,-3.90625 h 6.510416 q 2.604167,0 2.604167,2.604167 v 9.114583 q 0,2.604166 -2.604167,2.604166 z"
       id="path939" /><path
       d="m 93.644817,9.233936 v 10.416666 h 7.812503 l 0.013,-10.416666 h 3.90625 v 11.71875 q 0,2.604166 -2.60417,2.604166 H 92.342734 q -2.604167,0 -2.604167,-2.604166 V 9.233936 Z"
       id="path941" /><path
       d="m 117.09534,13.140186 h -5.22136 v 10.416666 h -3.90625 V 11.838103 q 0,-2.604167 2.60417,-2.604167 h 16.92708 q 2.60417,0 2.60417,2.604167 v 11.718749 h -3.90625 l -0.013,-10.416666 h -5.18229 v 10.416666 h -3.90625 z"
       id="path943" /><path
       d="m 145.74117,19.650602 h 5.18229 l 0.013,-10.416666 h 3.90625 v 11.71875 q 0,2.604166 -2.60416,2.604166 h -16.92709 q -2.60416,0 -2.60416,-2.604166 V 9.233936 h 3.90625 v 10.416666 h 5.22135 V 9.233936 h 3.90625 z"
       id="path945" /><path
       d="m 157.4469,11.838103 q 0,-2.604167 2.60416,-2.604167 h 10.41667 q 2.60417,0 2.60417,2.604167 v 11.718749 h -3.90625 l -0.013,-10.416666 h -7.79947 v 6.510416 h 6.51041 l -1.30208,3.90625 h -6.4974 q -2.61718,0 -2.61718,-2.604166 z"
       id="path947" /></g><g
     aria-label=".com"
     id="text838"
     style="font-size:10.6667px;font-family:Akashi;-inkscape-font-specification:Akashi;fill:#000000"><path
       d="m 97.694974,32.756878 v -1.562505 h 1.562505 v 1.562505 z"
       id="path928" /><path
       d="m 104.98146,28.590198 h -3.12501 v 2.604175 h 3.64584 v 1.562505 h -4.16668 q -1.04167,0 -1.04167,-1.04167 v -3.645845 q 0,-1.04167 1.04167,-1.04167 h 4.16668 z"
       id="path930" /><path
       d="m 112.79398,31.715208 q 0,1.04167 -1.04167,1.04167 h -4.16668 q -1.04167,0 -1.04167,-1.04167 v -3.645845 q 0,-1.04167 1.04167,-1.04167 h 4.16668 q 1.04167,0 1.04167,1.04167 z m -4.68751,-3.12501 v 2.604175 h 3.12501 v -2.604175 z"
       id="path932" /><path
       d="m 117.4867,28.590198 h -2.08855 v 4.16668 h -1.5625 v -4.687515 q 0,-1.04167 1.04167,-1.04167 h 6.77085 q 1.04167,0 1.04167,1.04167 v 4.687515 h -1.5625 l -0.005,-4.16668 h -2.07292 v 4.16668 h -1.56251 z"
       id="path934" /></g><path
     id="rect892"
     style="fill:#000000;stroke-width:1.08581"
     d="m 50.84026,29.141001 h 44 v 1.4 h -44 z" /><path
     id="rect892-0"
     style="fill:#000000;stroke-width:1.08581"
     d="m 124.866,29.141499 h 44 v 1.4 h -44 z" /></svg>
